# xmcd
#
# Track frame offsets: 
#        150
#        8021
#        39210
#        71290
#        98090
#        121270
#        149782
#        179859
#        210100
#        235174
#        261360
#        281377
#        314676
#
# Disc length: 4289 seconds
#
# Revision: 4
# Processed by: cddbd v1.5.2PL0 Copyright (c) Steve Scherf et al.
# Submitted via: ExactAudioCopy v1.1
#
DISCID=b610bf0d
DTITLE=Fritz Kalkbrenner - Sick Travellin'
DYEAR=2012
DGENRE=Electronic
TTITLE0=Sick Travellin' [Part 1]
TTITLE1=Make Me Say
TTITLE2=Get A Life
TTITLE3=Chequer Heart Day
TTITLE4=No Peace Of Mind
TTITLE5=Hummin' Hills
TTITLE6=Little By Little
TTITLE7=Monte Rosa
TTITLE8=Can't Stand The Fire
TTITLE9=By Any Means
TTITLE10=Willing
TTITLE11=Brumaire
TTITLE12=Sick Travellin' [Part 2]
EXTD=
EXTT0=
EXTT1=
EXTT2=
EXTT3=
EXTT4=
EXTT5=
EXTT6=
EXTT7=
EXTT8=
EXTT9=
EXTT10=
EXTT11=
EXTT12=
PLAYORDER=
